<mxfile host="app.diagrams.net" agent="Mozilla/5.0 (Windows NT 10.0; Win64; x64) AppleWebKit/537.36 (KHTML, like Gecko) Chrome/133.0.0.0 Safari/537.36" version="26.0.16">
  <diagram name="Page-1" id="C5deA9S2p4nSxGc1Nt6G">
    <mxGraphModel dx="765" dy="438" grid="1" gridSize="10" guides="1" tooltips="1" connect="1" arrows="1" fold="1" page="1" pageScale="1" pageWidth="850" pageHeight="1100" math="0" shadow="0">
      <root>
        <mxCell id="0" />
        <mxCell id="1" parent="0" />
        <mxCell id="fs_aJyB87Qy0uCGmPDMP-9" style="edgeStyle=orthogonalEdgeStyle;rounded=0;orthogonalLoop=1;jettySize=auto;html=1;exitX=1;exitY=0.5;exitDx=0;exitDy=0;entryX=0;entryY=0.5;entryDx=0;entryDy=0;" edge="1" parent="1" source="fs_aJyB87Qy0uCGmPDMP-2" target="fs_aJyB87Qy0uCGmPDMP-3">
          <mxGeometry relative="1" as="geometry" />
        </mxCell>
        <mxCell id="fs_aJyB87Qy0uCGmPDMP-2" value="UNMAP" style="ellipse;whiteSpace=wrap;html=1;aspect=fixed;" vertex="1" parent="1">
          <mxGeometry x="200" y="360" width="50" height="50" as="geometry" />
        </mxCell>
        <mxCell id="fs_aJyB87Qy0uCGmPDMP-3" value="RO" style="ellipse;whiteSpace=wrap;html=1;aspect=fixed;" vertex="1" parent="1">
          <mxGeometry x="400" y="360" width="50" height="50" as="geometry" />
        </mxCell>
        <mxCell id="fs_aJyB87Qy0uCGmPDMP-5" value="INV" style="ellipse;whiteSpace=wrap;html=1;aspect=fixed;" vertex="1" parent="1">
          <mxGeometry x="200" y="532" width="50" height="50" as="geometry" />
        </mxCell>
        <mxCell id="fs_aJyB87Qy0uCGmPDMP-6" value="RW" style="ellipse;whiteSpace=wrap;html=1;aspect=fixed;" vertex="1" parent="1">
          <mxGeometry x="400" y="532" width="50" height="50" as="geometry" />
        </mxCell>
        <mxCell id="fs_aJyB87Qy0uCGmPDMP-7" value="" style="endArrow=classic;html=1;rounded=0;" edge="1" parent="1">
          <mxGeometry width="50" height="50" relative="1" as="geometry">
            <mxPoint x="160" y="384.5" as="sourcePoint" />
            <mxPoint x="200" y="384.5" as="targetPoint" />
          </mxGeometry>
        </mxCell>
        <mxCell id="fs_aJyB87Qy0uCGmPDMP-8" value="init" style="text;html=1;align=center;verticalAlign=middle;resizable=0;points=[];autosize=1;strokeColor=none;fillColor=none;" vertex="1" parent="1">
          <mxGeometry x="160" y="360" width="40" height="30" as="geometry" />
        </mxCell>
        <mxCell id="fs_aJyB87Qy0uCGmPDMP-10" value="rd(getp)/wt(getp)" style="text;html=1;align=center;verticalAlign=middle;resizable=0;points=[];autosize=1;strokeColor=none;fillColor=none;" vertex="1" parent="1">
          <mxGeometry x="257" y="359" width="110" height="30" as="geometry" />
        </mxCell>
        <mxCell id="fs_aJyB87Qy0uCGmPDMP-11" value="wt: 写操作&lt;div&gt;rd:读操作&lt;/div&gt;&lt;div&gt;acq:acquire 操作&lt;/div&gt;&lt;div&gt;rel:release 操作&lt;/div&gt;&lt;div&gt;init: 初始化操作&lt;/div&gt;&lt;div&gt;rd(getp): 读取触发远端取页&lt;/div&gt;&lt;div&gt;wt(getp): 写入触发远端取页&lt;/div&gt;&lt;div&gt;wt(twin): 产生 twin ，写入缓存&lt;/div&gt;&lt;div&gt;rel(wtnt, diff): 释放锁时，送回 wtnt 和 diff&lt;/div&gt;&lt;div&gt;acqinv: 获取锁时，收到附带写通知，无效化&lt;/div&gt;" style="text;html=1;align=left;verticalAlign=middle;whiteSpace=wrap;rounded=0;" vertex="1" parent="1">
          <mxGeometry x="550" y="473" width="240" height="140" as="geometry" />
        </mxCell>
        <mxCell id="fs_aJyB87Qy0uCGmPDMP-13" value="" style="curved=1;endArrow=classic;html=1;rounded=0;exitX=1;exitY=0;exitDx=0;exitDy=0;entryX=1;entryY=1;entryDx=0;entryDy=0;" edge="1" parent="1" source="fs_aJyB87Qy0uCGmPDMP-3" target="fs_aJyB87Qy0uCGmPDMP-3">
          <mxGeometry width="50" height="50" relative="1" as="geometry">
            <mxPoint x="449.9976695296637" y="370.71233047033627" as="sourcePoint" />
            <mxPoint x="459.77000000000004" y="399.28999999999996" as="targetPoint" />
            <Array as="points">
              <mxPoint x="500" y="380" />
            </Array>
          </mxGeometry>
        </mxCell>
        <mxCell id="fs_aJyB87Qy0uCGmPDMP-15" value="rd&lt;div&gt;acq&lt;/div&gt;&lt;div&gt;rel&lt;/div&gt;" style="text;html=1;align=center;verticalAlign=middle;resizable=0;points=[];autosize=1;strokeColor=none;fillColor=none;" vertex="1" parent="1">
          <mxGeometry x="465" y="347" width="40" height="60" as="geometry" />
        </mxCell>
        <mxCell id="fs_aJyB87Qy0uCGmPDMP-17" value="" style="endArrow=classic;html=1;rounded=0;exitX=-0.009;exitY=0.753;exitDx=0;exitDy=0;exitPerimeter=0;entryX=0.738;entryY=0.096;entryDx=0;entryDy=0;entryPerimeter=0;" edge="1" parent="1">
          <mxGeometry width="50" height="50" relative="1" as="geometry">
            <mxPoint x="403.54999999999995" y="397.65" as="sourcePoint" />
            <mxPoint x="240.9000000000001" y="536.8" as="targetPoint" />
          </mxGeometry>
        </mxCell>
        <mxCell id="fs_aJyB87Qy0uCGmPDMP-20" value="" style="endArrow=none;html=1;rounded=0;exitX=-0.009;exitY=0.753;exitDx=0;exitDy=0;exitPerimeter=0;entryX=0.738;entryY=0.096;entryDx=0;entryDy=0;entryPerimeter=0;startFill=0;" edge="1" parent="1">
          <mxGeometry width="50" height="50" relative="1" as="geometry">
            <mxPoint x="411.54999999999995" y="406.65" as="sourcePoint" />
            <mxPoint x="248.9000000000001" y="545.8" as="targetPoint" />
          </mxGeometry>
        </mxCell>
        <mxCell id="fs_aJyB87Qy0uCGmPDMP-22" value="rd(getp)" style="text;html=1;align=center;verticalAlign=middle;resizable=0;points=[];autosize=1;strokeColor=none;fillColor=none;" vertex="1" parent="1">
          <mxGeometry x="313" y="470" width="70" height="30" as="geometry" />
        </mxCell>
        <mxCell id="fs_aJyB87Qy0uCGmPDMP-24" value="" style="endArrow=classic;html=1;rounded=0;entryX=0.567;entryY=0.041;entryDx=0;entryDy=0;entryPerimeter=0;exitX=0.598;exitY=1.006;exitDx=0;exitDy=0;exitPerimeter=0;" edge="1" parent="1">
          <mxGeometry width="50" height="50" relative="1" as="geometry">
            <mxPoint x="419.9" y="410.30000000000007" as="sourcePoint" />
            <mxPoint x="419.35" y="533.0500000000001" as="targetPoint" />
          </mxGeometry>
        </mxCell>
        <mxCell id="fs_aJyB87Qy0uCGmPDMP-26" value="" style="endArrow=classic;html=1;rounded=0;exitX=0.375;exitY=0.037;exitDx=0;exitDy=0;exitPerimeter=0;" edge="1" parent="1">
          <mxGeometry width="50" height="50" relative="1" as="geometry">
            <mxPoint x="431.75" y="531.8500000000001" as="sourcePoint" />
            <mxPoint x="433" y="408" as="targetPoint" />
          </mxGeometry>
        </mxCell>
        <mxCell id="fs_aJyB87Qy0uCGmPDMP-27" value="wt(twin)" style="text;html=1;align=center;verticalAlign=middle;resizable=0;points=[];autosize=1;strokeColor=none;fillColor=none;" vertex="1" parent="1">
          <mxGeometry x="367" y="443" width="60" height="30" as="geometry" />
        </mxCell>
        <mxCell id="fs_aJyB87Qy0uCGmPDMP-28" value="rel(wtnt, diff)&lt;div&gt;&lt;span style=&quot;background-color: transparent; color: light-dark(rgb(0, 0, 0), rgb(255, 255, 255));&quot;&gt;acq&lt;/span&gt;&lt;/div&gt;" style="text;html=1;align=left;verticalAlign=middle;resizable=0;points=[];autosize=1;strokeColor=none;fillColor=none;" vertex="1" parent="1">
          <mxGeometry x="440" y="443" width="90" height="40" as="geometry" />
        </mxCell>
        <mxCell id="fs_aJyB87Qy0uCGmPDMP-32" value="acqinv" style="text;html=1;align=center;verticalAlign=middle;resizable=0;points=[];autosize=1;strokeColor=none;fillColor=none;" vertex="1" parent="1">
          <mxGeometry x="280" y="438" width="60" height="30" as="geometry" />
        </mxCell>
        <mxCell id="fs_aJyB87Qy0uCGmPDMP-35" value="" style="curved=1;endArrow=classic;html=1;rounded=0;exitX=0;exitY=1;exitDx=0;exitDy=0;entryX=1;entryY=1;entryDx=0;entryDy=0;" edge="1" parent="1" source="fs_aJyB87Qy0uCGmPDMP-5" target="fs_aJyB87Qy0uCGmPDMP-5">
          <mxGeometry width="50" height="50" relative="1" as="geometry">
            <mxPoint x="230" y="640" as="sourcePoint" />
            <mxPoint x="280" y="590" as="targetPoint" />
            <Array as="points">
              <mxPoint x="225" y="620" />
            </Array>
          </mxGeometry>
        </mxCell>
        <mxCell id="fs_aJyB87Qy0uCGmPDMP-36" value="acq, rel" style="text;html=1;align=center;verticalAlign=middle;resizable=0;points=[];autosize=1;strokeColor=none;fillColor=none;" vertex="1" parent="1">
          <mxGeometry x="195" y="590" width="60" height="30" as="geometry" />
        </mxCell>
        <mxCell id="fs_aJyB87Qy0uCGmPDMP-37" value="" style="endArrow=classic;html=1;rounded=0;exitX=0.982;exitY=0.385;exitDx=0;exitDy=0;exitPerimeter=0;entryX=-0.014;entryY=0.379;entryDx=0;entryDy=0;entryPerimeter=0;" edge="1" parent="1" source="fs_aJyB87Qy0uCGmPDMP-5" target="fs_aJyB87Qy0uCGmPDMP-6">
          <mxGeometry width="50" height="50" relative="1" as="geometry">
            <mxPoint x="280" y="575" as="sourcePoint" />
            <mxPoint x="330" y="525" as="targetPoint" />
          </mxGeometry>
        </mxCell>
        <mxCell id="fs_aJyB87Qy0uCGmPDMP-38" value="" style="endArrow=classic;html=1;rounded=0;exitX=0.047;exitY=0.648;exitDx=0;exitDy=0;exitPerimeter=0;entryX=0.994;entryY=0.661;entryDx=0;entryDy=0;entryPerimeter=0;" edge="1" parent="1">
          <mxGeometry width="50" height="50" relative="1" as="geometry">
            <mxPoint x="400.9999999999999" y="562.4000000000001" as="sourcePoint" />
            <mxPoint x="248.34999999999994" y="563.05" as="targetPoint" />
          </mxGeometry>
        </mxCell>
        <mxCell id="fs_aJyB87Qy0uCGmPDMP-39" value="wt(getp, twin)" style="text;html=1;align=center;verticalAlign=middle;resizable=0;points=[];autosize=1;strokeColor=none;fillColor=none;" vertex="1" parent="1">
          <mxGeometry x="280" y="520" width="90" height="30" as="geometry" />
        </mxCell>
        <mxCell id="fs_aJyB87Qy0uCGmPDMP-40" value="" style="curved=1;endArrow=classic;html=1;rounded=0;exitX=0;exitY=1;exitDx=0;exitDy=0;entryX=1;entryY=1;entryDx=0;entryDy=0;" edge="1" parent="1">
          <mxGeometry width="50" height="50" relative="1" as="geometry">
            <mxPoint x="407" y="575" as="sourcePoint" />
            <mxPoint x="443" y="575" as="targetPoint" />
            <Array as="points">
              <mxPoint x="425" y="620" />
            </Array>
          </mxGeometry>
        </mxCell>
        <mxCell id="fs_aJyB87Qy0uCGmPDMP-41" value="wt/rd" style="text;html=1;align=center;verticalAlign=middle;resizable=0;points=[];autosize=1;strokeColor=none;fillColor=none;" vertex="1" parent="1">
          <mxGeometry x="402" y="593" width="50" height="30" as="geometry" />
        </mxCell>
        <mxCell id="fs_aJyB87Qy0uCGmPDMP-43" value="acqinv" style="text;html=1;align=center;verticalAlign=middle;resizable=0;points=[];autosize=1;strokeColor=none;fillColor=none;" vertex="1" parent="1">
          <mxGeometry x="295" y="563" width="60" height="30" as="geometry" />
        </mxCell>
      </root>
    </mxGraphModel>
  </diagram>
</mxfile>
